<svg width="1696" height="666" viewBox="0 0 1696 666" fill="none" xmlns="http://www.w3.org/2000/svg">
<path d="M15 86L15 666" stroke="#D3D3D3" stroke-dasharray="2 2"/>
<path d="M15 0L15 55" stroke="#D3D3D3" stroke-dasharray="2 2"/>
<path d="M255 0L255 666" stroke="#D3D3D3" stroke-dasharray="2 2"/>
<path d="M495 0L495 666" stroke="#D3D3D3" stroke-dasharray="2 2"/>
<path d="M735 0L735 482" stroke="#D3D3D3" stroke-dasharray="2 2"/>
<path d="M735 513L735 666" stroke="#D3D3D3" stroke-dasharray="2 2"/>
<path d="M975 0L975 666" stroke="#D3D3D3" stroke-dasharray="2 2"/>
<path d="M1215 0V488" stroke="#D3D3D3" stroke-dasharray="2 2"/>
<path d="M1455 253L1455 666" stroke="#D3D3D3" stroke-dasharray="2 2"/>
<path d="M1455 253L1455 666" stroke="#D3D3D3" stroke-dasharray="2 2"/>
<path d="M1455 0L1455 52" stroke="#D3D3D3" stroke-dasharray="2 2"/>
<path d="M1455 83L1455 242" stroke="#D3D3D3" stroke-dasharray="2 2"/>
<path d="M1695 0L1695 666" stroke="#D3D3D3" stroke-dasharray="2 2"/>
<path d="M722.5 502V505.75M735 498.25V490.75C735 490.087 735.263 489.451 735.732 488.982C736.201 488.513 736.837 488.25 737.5 488.25H742.5C743.163 488.25 743.799 488.513 744.268 488.982C744.737 489.451 745 490.087 745 490.75V493.25M735 498.25V490.75C735 490.087 734.737 489.451 734.268 488.982C733.799 488.513 733.163 488.25 732.5 488.25H727.5C726.837 488.25 726.201 488.513 725.732 488.982C725.263 489.451 725 490.087 725 490.75V493.25" stroke="#E0E0E0" stroke-width="1.25" stroke-linecap="round" stroke-linejoin="round"/>
<path d="M747.5 502V505.75M745 493.25C744.337 493.25 743.701 493.513 743.232 493.982C742.763 494.451 742.5 495.087 742.5 495.75V498.25H727.5V495.75C727.5 495.087 727.237 494.451 726.768 493.982C726.299 493.513 725.663 493.25 725 493.25C724.337 493.25 723.701 493.513 723.232 493.982C722.763 494.451 722.5 495.087 722.5 495.75V503.25H747.5V495.75C747.5 495.087 747.237 494.451 746.768 493.982C746.299 493.513 745.663 493.25 745 493.25Z" stroke="#E0E0E0" stroke-width="1.25" stroke-linecap="round" stroke-linejoin="round"/>
<path d="M1445.62 58.625C1444.08 58.625 1442.81 59.8953 1442.81 61.4375V67.7937C1442.24 68.3112 1441.88 69.0519 1441.88 69.875V78.3125H1446.56V76.4375H1463.44V78.3125H1468.12V69.875C1468.12 69.0519 1467.76 68.3112 1467.19 67.7937V61.4375C1467.19 59.8953 1465.92 58.625 1464.38 58.625H1445.62ZM1445.62 60.5H1464.38C1464.9 60.5 1465.31 60.9172 1465.31 61.4375V67.0625H1463.44V66.125C1463.44 64.5828 1462.17 63.3125 1460.62 63.3125H1456.88C1456.16 63.3125 1455.5 63.5937 1455 64.0437C1454.49 63.5759 1453.82 63.3153 1453.12 63.3125H1449.38C1447.83 63.3125 1446.56 64.5828 1446.56 66.125V67.0625H1444.69V61.4375C1444.69 60.9172 1445.1 60.5 1445.62 60.5ZM1449.38 65.1875H1453.12C1453.65 65.1875 1454.06 65.6047 1454.06 66.125V67.0625H1448.44V66.125C1448.44 65.6047 1448.85 65.1875 1449.38 65.1875ZM1456.88 65.1875H1460.62C1461.15 65.1875 1461.56 65.6047 1461.56 66.125V67.0625H1455.94V66.125C1455.94 65.6047 1456.35 65.1875 1456.88 65.1875ZM1444.69 68.9375H1465.31C1465.83 68.9375 1466.25 69.3547 1466.25 69.875V76.4375H1465.31V74.5625H1444.69V76.4375H1443.75V69.875C1443.75 69.3547 1444.17 68.9375 1444.69 68.9375Z" fill="#E0E0E0"/>
<path d="M26.25 70.1812V64.9062C26.2491 64.1606 25.9526 63.4457 25.4253 62.9185C24.898 62.3912 24.1832 62.0946 23.4375 62.0938H6.5625C5.81684 62.0946 5.10197 62.3912 4.5747 62.9185C4.04744 63.4457 3.75085 64.1606 3.75 64.9062V70.1812C2.94554 70.3901 2.23307 70.8598 1.72414 71.5169C1.21521 72.174 0.93856 72.9814 0.9375 73.8125V80.375C0.938058 80.8721 1.13578 81.3487 1.48729 81.7002C1.8388 82.0517 2.31539 82.2494 2.8125 82.25H3.75V85.0625H5.625V82.25H24.375V85.0625H26.25V82.25H27.1875C27.6846 82.2494 28.1612 82.0517 28.5127 81.7002C28.8642 81.3487 29.0619 80.8721 29.0625 80.375V73.8125C29.0614 72.9814 28.7848 72.174 28.2759 71.5169C27.7669 70.8598 27.0545 70.3901 26.25 70.1812ZM6.5625 80.375H2.8125V73.8125C2.8125 73.3152 3.01004 72.8383 3.36167 72.4867C3.71331 72.135 4.19022 71.9375 4.6875 71.9375C5.18478 71.9375 5.66169 72.135 6.01333 72.4867C6.36496 72.8383 6.5625 73.3152 6.5625 73.8125V80.375ZM21.5625 80.375H8.4375V74.75H21.5625V80.375ZM21.6812 72.875H8.31885C8.15004 72.2269 7.81141 71.6357 7.33788 71.1621C6.86434 70.6886 6.27305 70.35 5.625 70.1812V64.9062C5.62529 64.6577 5.72416 64.4194 5.89991 64.2437C6.07566 64.0679 6.31395 63.969 6.5625 63.9688H23.4375C23.6861 63.969 23.9243 64.0679 24.1001 64.2437C24.2758 64.4194 24.3747 64.6577 24.375 64.9062V70.1812C23.7269 70.35 23.1357 70.6886 22.6621 71.1621C22.1886 71.6357 21.85 72.2269 21.6812 72.875ZM27.1875 80.375H23.4375V73.8125C23.4375 73.3152 23.635 72.8383 23.9867 72.4867C24.3383 72.135 24.8152 71.9375 25.3125 71.9375C25.8098 71.9375 26.2867 72.135 26.6383 72.4867C26.99 72.8383 27.1875 73.3152 27.1875 73.8125L27.1887 80.375H27.1875Z" fill="#E0E0E0"/>
</svg>
