<svg width="80" height="80" viewBox="0 0 80 80" fill="none" xmlns="http://www.w3.org/2000/svg">
<path d="M35 54.865C33.2667 54.6727 31.5617 54.2784 29.92 53.69C29.97 52.51 30 51.28 30 50V48.315C31.55 49.055 33.235 49.57 35 49.825V37.5C35 35.5109 35.7902 33.6032 37.1967 32.1967C38.6032 30.7902 40.5109 30 42.5 30H54.825C54.4263 27.2294 53.3687 24.5949 51.7412 22.3176C50.1137 20.0403 47.9636 18.1866 45.4715 16.9121C42.9793 15.6377 40.2178 14.9796 37.4188 14.9931C34.6197 15.0067 31.8647 15.6915 29.385 16.99C28.9895 15.3547 28.3381 13.7921 27.455 12.36C30.6963 10.7421 34.2804 9.93085 37.9025 9.99512C41.5247 10.0594 45.0777 10.9973 48.2596 12.7292C51.4415 14.461 54.1582 16.9355 56.1787 19.9424C58.1992 22.9493 59.4638 26.3996 59.865 30H67.5C69.4891 30 71.3968 30.7902 72.8033 32.1967C74.2098 33.6032 75 35.5109 75 37.5V62.5C75 64.4891 74.2098 66.3968 72.8033 67.8033C71.3968 69.2098 69.4891 70 67.5 70H42.5C40.5109 70 38.6032 69.2098 37.1967 67.8033C35.7902 66.3968 35 64.4891 35 62.5V54.865ZM59.865 35C59.2969 40.073 57.0214 44.8022 53.4118 48.4118C49.8022 52.0214 45.073 54.2969 40 54.865V62.5C40 63.1631 40.2634 63.7989 40.7322 64.2678C41.2011 64.7366 41.837 65 42.5 65H67.5C68.163 65 68.7989 64.7366 69.2678 64.2678C69.7366 63.7989 70 63.1631 70 62.5V37.5C70 36.837 69.7366 36.2011 69.2678 35.7322C68.7989 35.2634 68.163 35 67.5 35H59.865ZM54.825 35H42.5C41.837 35 41.2011 35.2634 40.7322 35.7322C40.2634 36.2011 40 36.837 40 37.5V49.825C43.7399 49.2844 47.2046 47.5485 49.8765 44.8765C52.5485 42.2046 54.2844 38.7399 54.825 35ZM23.975 37.805C23.45 35.875 22.6 33.94 21.14 32.455C23.5 30.22 25 26.66 25 22.5C25 19.015 24.295 16.62 23.02 14.705C22.4543 13.8814 21.8004 13.1219 21.07 12.44C20.7901 12.1698 20.5067 11.9031 20.22 11.64C19.915 11.355 19.635 11.095 19.27 10.73C18.52 9.98001 18.435 9.38001 18.435 9.06501C18.4358 8.88992 18.4645 8.71608 18.52 8.55001C18.7486 8.05564 18.8095 7.50014 18.6934 6.96798C18.5774 6.43583 18.2907 5.95614 17.877 5.60186C17.4633 5.24758 16.9452 5.0381 16.4015 5.00528C15.8578 4.97245 15.3183 5.11808 14.865 5.42001L14.855 5.42501L14.84 5.43501L14.795 5.46501L14.645 5.56501C13.895 6.09997 13.1724 6.67236 12.48 7.28001C11.23 8.38501 9.6 10.02 8.445 11.97C7.43675 13.5867 6.62755 15.3192 6.035 17.13C5.435 18.925 5 20.87 5 22.5C5 26.66 6.5 30.215 8.86 32.46C7.4 33.94 6.55 35.875 6.025 37.81C5 41.57 5 46.22 5 49.815V50C5 60.29 6.925 66.4 9.105 70.035C10.2 71.855 11.34 73.03 12.295 73.77C12.8039 74.1669 13.3577 74.5026 13.945 74.77C14.2847 74.894 14.6396 74.9714 15 75C15.42 75 16.055 74.77 16.055 74.77C16.6423 74.5026 17.1961 74.1669 17.705 73.77C18.655 73.03 19.805 71.855 20.895 70.035C23.075 66.405 25 60.29 25 50V49.82C25 46.22 25 41.575 23.975 37.805ZM12.435 35.955C13 35.385 13.755 35 15 35C16.25 35 17 35.39 17.565 35.95C18.195 36.585 18.74 37.615 19.15 39.12C19.98 42.175 20 46.185 20 50C20 59.71 18.175 64.85 16.605 67.465C16.005 68.465 15.44 69.11 15 69.515C14.3713 68.9105 13.831 68.2204 13.395 67.465C11.825 64.845 10 59.71 10 50C10 46.185 10.02 42.175 10.85 39.12C11.26 37.62 11.805 36.585 12.435 35.95V35.955ZM15 30C13.075 30 10 27.86 10 22.5C10 21.635 10.26 20.265 10.78 18.715C11.2539 17.2517 11.9072 15.8527 12.725 14.55C13.16 13.815 13.725 13.1 14.335 12.445C14.68 13.055 15.135 13.67 15.735 14.27C16.1 14.635 16.575 15.075 16.98 15.455L17.6 16.035C18.125 16.545 18.53 16.99 18.855 17.485C19.455 18.38 20 19.735 20 22.5C20 27.86 16.925 30 15 30Z" fill="#F2B030"/>
</svg>
