<svg width="186" height="21" viewBox="0 0 186 21" fill="current" xmlns="http://www.w3.org/2000/svg">
<path d="M0 14.9402C0 14.5492 0.13003 14.3537 0.39009 14.3537C0.631573 14.3537 0.780179 14.4468 0.835906 14.633C1.02166 15.0798 1.18884 15.4707 1.33745 15.8059C1.50463 16.1223 1.76469 16.5226 2.11763 17.0066C2.47057 17.4721 2.85137 17.863 3.26003 18.1795C3.6687 18.4774 4.18882 18.738 4.82039 18.9614C5.47054 19.1848 6.17642 19.2965 6.93802 19.2965C8.3312 19.2965 9.44574 18.9335 10.2816 18.2074C11.1361 17.4628 11.5634 16.4947 11.5634 15.3032C11.5634 14.4282 11.2754 13.7021 10.6996 13.125C10.1238 12.5293 9.46432 12.1104 8.72129 11.8684C7.97826 11.6077 7.0309 11.2726 5.87921 10.863C4.74609 10.4348 3.8173 10.0066 3.09285 9.57846C1.40246 8.57314 0.557271 7.20479 0.557271 5.4734C0.557271 3.81649 1.15169 2.49468 2.34054 1.50798C3.54796 0.50266 5.10832 0 7.02161 0C7.72749 0 8.56339 0.158245 9.52933 0.474735C10.5138 0.772607 11.0154 0.921544 11.034 0.921544C11.0897 0.921544 11.1919 0.88431 11.3405 0.809842C11.4891 0.735373 11.6005 0.698139 11.6748 0.698139C11.9163 0.698139 12.0556 0.772607 12.0928 0.921544C12.4829 3.1742 12.6779 4.44016 12.6779 4.71942C12.6779 5.24069 12.5479 5.50133 12.2878 5.50133C12.1206 5.50133 11.9906 5.37101 11.8977 5.11037C11.6748 4.57048 11.4519 4.13298 11.229 3.79787C11.0247 3.46277 10.8761 3.24867 10.7832 3.15559C10.6903 3.0625 10.4488 2.8391 10.0587 2.48537C9.05565 1.59176 7.83894 1.14495 6.40861 1.14495C5.25692 1.14495 4.29099 1.4242 3.51081 1.98271C2.73063 2.54122 2.34054 3.29521 2.34054 4.24468C2.34054 5.08245 2.56345 5.77128 3.00926 6.31117C3.47365 6.85106 4.08665 7.26995 4.84826 7.56782C5.60986 7.86569 6.40861 8.14495 7.24452 8.40559C8.08043 8.66622 8.96277 9.02926 9.89156 9.49468C10.8389 9.96011 11.6191 10.5186 12.2321 11.1702C12.9751 11.9707 13.3466 12.9668 13.3466 14.1582C13.3466 16.113 12.7243 17.6676 11.4798 18.8218C10.2352 19.9574 8.69342 20.5253 6.85443 20.5253C5.57271 20.5253 4.54176 20.4508 3.76158 20.3019C2.9814 20.1715 2.18264 19.8923 1.36531 19.4641C1.12383 19.3152 0.835906 18.5891 0.501544 17.2859C0.167181 15.9827 0 15.2008 0 14.9402Z" fill="current"/>
<path d="M15.1308 0.75399C15.1308 0.493351 15.3815 0.363032 15.8831 0.363032C15.9945 0.363032 16.3475 0.38165 16.9419 0.418884C17.5549 0.437501 18.2236 0.446809 18.9481 0.446809C19.4682 0.446809 19.9883 0.437501 20.5084 0.418884C21.0286 0.38165 21.3072 0.363032 21.3443 0.363032C21.5115 0.363032 21.6137 0.390958 21.6508 0.446809C21.7066 0.484043 21.7344 0.56782 21.7344 0.698139C21.7344 0.809841 21.5301 0.968086 21.1214 1.17287C20.7313 1.37766 20.5363 1.65692 20.5363 2.01064C20.5363 2.17819 20.5735 2.38298 20.6478 2.625C20.7221 2.86702 20.8707 3.24867 21.0936 3.76995C21.3165 4.29122 21.5487 4.83112 21.7902 5.38963C22.0502 5.94814 22.4403 6.81383 22.9604 7.9867C23.4805 9.14096 23.9914 10.2952 24.4929 11.4495C24.623 11.7473 24.8087 12.1941 25.0502 12.7899C25.3103 13.367 25.5146 13.8418 25.6632 14.2141C25.8304 14.5864 26.0068 14.9867 26.1926 15.4149C26.3784 15.8245 26.527 16.1316 26.6384 16.3364C26.7684 16.5412 26.8613 16.6436 26.917 16.6436C26.9914 16.6436 27.2886 16.0665 27.8087 14.9122C28.3288 13.758 28.7932 12.6689 29.2019 11.6449C29.2762 11.4774 29.3598 11.2912 29.4526 11.0864C29.5641 10.8816 29.6384 10.7141 29.6755 10.5838C29.7313 10.4348 29.7591 10.2859 29.7591 10.137C29.7591 9.91356 29.2019 8.55452 28.0873 6.05984C26.9728 3.54654 26.2576 2.11303 25.9418 1.75931C25.8675 1.66622 25.7932 1.59176 25.7189 1.5359C25.6446 1.48005 25.5703 1.43351 25.496 1.39628C25.4403 1.34043 25.3846 1.30319 25.3288 1.28457C25.2917 1.24734 25.2359 1.22872 25.1616 1.22872C25.0873 1.21011 25.0316 1.2008 24.9945 1.2008C24.9759 1.2008 24.9202 1.2008 24.8273 1.2008C24.753 1.18218 24.7065 1.17287 24.688 1.17287C24.1678 1.11702 23.8521 1.07048 23.7406 1.03324C23.6292 0.977394 23.5734 0.875001 23.5734 0.726064C23.5734 0.465426 23.8428 0.335107 24.3815 0.335107C24.4929 0.335107 24.8551 0.353724 25.4681 0.390959C26.0811 0.428193 26.7406 0.446809 27.4465 0.446809C27.4836 0.446809 27.7344 0.428193 28.1988 0.390959C28.6632 0.353724 29.0254 0.335107 29.2854 0.335107C29.8427 0.335107 30.1214 0.409575 30.1214 0.558512C30.1214 0.670214 30.0192 0.781915 29.8149 0.893617C29.6105 1.00532 29.4062 1.15426 29.2019 1.34043C29.0161 1.50798 28.9232 1.72208 28.9232 1.98271C28.9232 2.33644 29.2111 3.16489 29.787 4.46809C29.8241 4.54255 29.9449 4.84973 30.1492 5.38963C30.3721 5.92952 30.5672 6.38564 30.7344 6.75798C30.9015 7.1117 31.0223 7.28856 31.0966 7.28856C31.2452 7.28856 31.6167 6.47872 32.2111 4.85904C32.8055 3.22075 33.1028 2.25266 33.1028 1.95479C33.1028 1.61968 32.9634 1.38697 32.6848 1.25665C32.4062 1.10771 32.1275 1.00532 31.8489 0.949469C31.5703 0.875001 31.4309 0.763299 31.4309 0.614362C31.4309 0.409575 31.6353 0.307182 32.0439 0.307182C32.1554 0.307182 32.434 0.31649 32.8798 0.335107C33.3257 0.353724 33.6415 0.363032 33.8272 0.363032H34.3009C34.5609 0.363032 35.0532 0.335107 35.7777 0.279257H36.0284C36.2699 0.279257 36.3907 0.372342 36.3907 0.558512C36.3907 0.744682 36.2142 0.893618 35.8612 1.00532C35.5083 1.11702 35.2668 1.23803 35.1368 1.36835C34.8396 1.66622 34.5795 2.09442 34.3566 2.65293C33.9665 3.60239 33.5021 4.71011 32.9634 5.97606C32.4062 7.27926 32.0811 8.06117 31.9882 8.32181C31.8953 8.58245 31.8489 8.81516 31.8489 9.01995C31.8489 9.16888 32.4155 10.5093 33.5486 13.0412C34.6817 15.5731 35.3504 16.8391 35.5547 16.8391C35.7777 16.8391 36.855 14.4934 38.7869 9.80186C40.7374 5.09176 41.7126 2.50399 41.7126 2.03856C41.7126 1.74069 41.6011 1.51729 41.3782 1.36835C41.1739 1.2008 40.9417 1.10771 40.6816 1.0891C40.4216 1.05186 40.1801 1.00532 39.9572 0.949469C39.7529 0.875001 39.6507 0.763299 39.6507 0.614362C39.6507 0.484044 39.6786 0.409576 39.7343 0.390959C39.79 0.353724 39.9386 0.335107 40.1801 0.335107C40.2358 0.335107 40.4494 0.344415 40.821 0.363032C41.1925 0.363032 41.564 0.363032 41.9355 0.363032C42.2699 0.363032 42.6414 0.353724 43.05 0.335107C43.4773 0.31649 43.9324 0.307182 44.4154 0.307182C44.7869 0.307182 44.9726 0.437501 44.9726 0.698139C44.9726 0.828458 44.9169 0.930851 44.8054 1.00532C44.7126 1.07979 44.564 1.17287 44.3596 1.28457C44.1553 1.39628 43.9788 1.5266 43.8302 1.67553C43.7373 1.76862 43.6537 1.8617 43.5794 1.95479C43.5237 2.04787 43.4587 2.16888 43.3844 2.31782C43.3101 2.44814 43.2451 2.55984 43.1894 2.65293C43.1522 2.74601 43.0779 2.91356 42.9664 3.15559C42.8736 3.37899 42.7993 3.55585 42.7435 3.68617C41.3132 6.8883 39.7157 10.4814 37.951 14.4654C36.5393 17.6862 35.7034 19.5665 35.4433 20.1064C35.1832 20.6463 34.9789 20.9162 34.8303 20.9162C34.7374 20.9162 34.626 20.7952 34.4959 20.5532C34.3659 20.3298 34.1801 19.9481 33.9387 19.4082C33.7158 18.8497 33.5857 18.5239 33.5486 18.4309C33.3628 18.0213 33.112 17.4535 32.7963 16.7274C32.499 16.0013 32.239 15.387 32.0161 14.8843C31.8117 14.3816 31.5981 13.8697 31.3752 13.3484C31.1523 12.8271 30.9665 12.4362 30.8179 12.1755C30.6693 11.8963 30.5672 11.7566 30.5114 11.7566C30.3257 11.7566 29.6941 13.0412 28.6167 15.6104C27.5579 18.1795 26.9914 19.613 26.917 19.9109C26.8985 19.9854 26.8706 20.0598 26.8335 20.1343C26.8149 20.2088 26.7963 20.2739 26.7777 20.3298C26.7592 20.3856 26.7406 20.4415 26.722 20.4973C26.7034 20.5532 26.6849 20.5997 26.6663 20.637C26.6477 20.6742 26.6291 20.7114 26.6106 20.7487C26.6106 20.7859 26.6013 20.8138 26.5827 20.8324C26.5641 20.8697 26.5455 20.8976 26.527 20.9162C26.5084 20.9348 26.4898 20.9441 26.4712 20.9441C26.4527 20.9628 26.4341 20.9721 26.4155 20.9721C26.3969 20.9907 26.3691 21 26.3319 21C26.1647 21 25.9604 20.7301 25.7189 20.1902C25.4774 19.6689 25.0409 18.6356 24.4093 17.0904C23.7778 15.5266 23.1369 14.0279 22.4867 12.5944C21.4094 10.2301 20.267 7.55851 19.0595 4.57979C18.7066 3.68617 18.3258 2.98803 17.9171 2.48537C17.5085 1.9641 17.1462 1.6383 16.8304 1.50798C16.5147 1.37766 16.2267 1.30319 15.9667 1.28457C15.7066 1.26596 15.5023 1.22872 15.3537 1.17287C15.2051 1.11702 15.1308 0.977394 15.1308 0.75399Z" fill="current"/>
<path d="M46.0691 0.642287C46.0691 0.381649 46.3292 0.25133 46.8493 0.25133C46.9236 0.25133 47.0443 0.260639 47.2115 0.279257C47.3787 0.297873 47.5087 0.307182 47.6016 0.307182C47.6573 0.307182 48.5304 0.335108 50.2208 0.390959C51.9112 0.428193 53.3043 0.446809 54.4003 0.446809C54.7904 0.446809 55.747 0.428193 57.2702 0.390959C58.812 0.353724 59.7129 0.335107 59.973 0.335107C60.3259 0.335107 60.5024 0.549203 60.5024 0.977394C60.5024 1.0891 60.4467 1.46144 60.3352 2.09442C60.2238 2.70878 60.168 3.2859 60.168 3.8258C60.168 3.99335 60.1216 4.14229 60.0287 4.27261C59.9359 4.38431 59.8337 4.44016 59.7222 4.44016C59.4436 4.44016 59.3043 4.24468 59.3043 3.85372C59.3043 3.35106 59.1464 2.89495 58.8306 2.48537C58.5148 2.0758 58.1247 1.8617 57.6603 1.84309C55.9885 1.71277 54.7068 1.64761 53.8152 1.64761H53.0907C52.1248 1.64761 51.5582 1.72207 51.391 1.87101C51.2424 2.00133 51.1495 2.49468 51.1124 3.35106C51.0381 4.69149 51.0009 6.24601 51.0009 8.01463C51.0009 8.94548 51.1774 9.42021 51.5303 9.43883H54.261C55.3755 9.43883 56.1185 9.4016 56.4901 9.32713C56.8616 9.25266 57.1959 9.11303 57.4931 8.90825C57.8461 8.66622 58.0597 8.32181 58.134 7.875C58.1897 7.55851 58.3198 7.40027 58.5241 7.40027C58.6913 7.40027 58.7934 7.42819 58.8306 7.48404C58.8677 7.53989 58.8863 7.6609 58.8863 7.84707C58.8863 7.97739 58.8492 8.40559 58.7749 9.13165C58.7006 9.85771 58.6634 10.4069 58.6634 10.7793C58.6634 11.133 58.6727 11.4681 58.6913 11.7846C58.7284 12.1011 58.747 12.3338 58.747 12.4827C58.747 12.9481 58.682 13.1809 58.552 13.1809C58.2733 13.1809 58.069 12.9574 57.939 12.5106C57.6789 11.7287 57.4467 11.2726 57.2424 11.1423C56.8523 10.8816 55.9607 10.7513 54.5675 10.7513C54.0102 10.7513 53.5551 10.7513 53.2022 10.7513C52.8678 10.7513 52.6449 10.7513 52.5334 10.7513C52.4406 10.7327 52.357 10.7234 52.2827 10.7234C52.2269 10.7234 52.1712 10.7234 52.1155 10.7234C51.3539 10.7234 50.9731 10.9003 50.9731 11.254C50.9731 11.7939 50.9638 12.4734 50.9452 13.2926C50.9266 14.0931 50.9174 14.754 50.9174 15.2753V16.3923C50.9174 17.7327 51.1403 18.4681 51.5861 18.5984C52.0505 18.7473 52.4498 18.8218 52.7842 18.8218C54.1774 18.8218 55.3941 18.7566 56.4343 18.6263C57.4931 18.496 58.2826 18.3378 58.8027 18.1516C59.3414 17.9468 59.7872 17.7327 60.1402 17.5093C60.4931 17.2673 60.716 17.0532 60.8089 16.867C60.9204 16.6622 61.0225 16.4947 61.1154 16.3644C61.2269 16.234 61.3383 16.1689 61.4498 16.1689C61.6727 16.1689 61.7841 16.3271 61.7841 16.6436C61.7841 17.4441 61.3848 18.254 60.586 19.0731C59.7872 19.8923 59.0907 20.3019 58.4962 20.3019C57.1588 20.3019 55.6449 20.2553 53.9545 20.1622C52.2827 20.0691 51.2424 20.0226 50.8338 20.0226C50.3136 20.0226 49.6635 20.0691 48.8833 20.1622C48.1031 20.2367 47.4901 20.2739 47.0443 20.2739C46.6542 20.2739 46.4592 20.1809 46.4592 19.9947C46.4592 19.8271 46.4592 19.7154 46.4592 19.6596C46.4592 19.6037 46.487 19.5572 46.5428 19.5199C46.5985 19.4827 46.6542 19.4641 46.71 19.4641C46.7843 19.4455 46.905 19.4082 47.0722 19.3524C47.2579 19.2965 47.453 19.2221 47.6573 19.129C48.1031 18.9056 48.3911 18.4681 48.5211 17.8165C48.6697 17.1649 48.744 15.7965 48.744 13.7114V10.2487C48.744 9.74601 48.7533 8.9641 48.7719 7.90293C48.809 6.84176 48.8276 6.0133 48.8276 5.41755C48.8276 4.9149 48.809 4.06782 48.7719 2.87633C48.7533 2.33644 48.5211 1.91755 48.0753 1.61968C47.6295 1.32181 47.1093 1.16356 46.5149 1.14495C46.2177 1.14495 46.0691 0.977394 46.0691 0.642287Z" fill="current"/>
<path d="M62.8852 0.642287C62.8852 0.381649 63.1452 0.25133 63.6654 0.25133C63.7397 0.25133 63.8604 0.260639 64.0276 0.279257C64.1948 0.297873 64.3248 0.307182 64.4177 0.307182C64.4734 0.307182 65.3465 0.335108 67.0368 0.390959C68.7272 0.428193 70.1204 0.446809 71.2164 0.446809C71.6065 0.446809 72.5631 0.428193 74.0863 0.390959C75.6281 0.353724 76.529 0.335107 76.7891 0.335107C77.142 0.335107 77.3185 0.549203 77.3185 0.977394C77.3185 1.0891 77.2628 1.46144 77.1513 2.09442C77.0399 2.70878 76.9841 3.2859 76.9841 3.8258C76.9841 3.99335 76.9377 4.14229 76.8448 4.27261C76.7519 4.38431 76.6498 4.44016 76.5383 4.44016C76.2597 4.44016 76.1204 4.24468 76.1204 3.85372C76.1204 3.35106 75.9625 2.89495 75.6467 2.48537C75.3309 2.0758 74.9408 1.8617 74.4764 1.84309C72.8046 1.71277 71.5229 1.64761 70.6312 1.64761H69.9068C68.9408 1.64761 68.3743 1.72207 68.2071 1.87101C68.0585 2.00133 67.9656 2.49468 67.9285 3.35106C67.8542 4.69149 67.817 6.24601 67.817 8.01463C67.817 8.94548 67.9935 9.42021 68.3464 9.43883H71.0771C72.1916 9.43883 72.9346 9.4016 73.3061 9.32713C73.6777 9.25266 74.012 9.11303 74.3092 8.90825C74.6622 8.66622 74.8758 8.32181 74.9501 7.875C75.0058 7.55851 75.1358 7.40027 75.3402 7.40027C75.5074 7.40027 75.6095 7.42819 75.6467 7.48404C75.6838 7.53989 75.7024 7.6609 75.7024 7.84707C75.7024 7.97739 75.6653 8.40559 75.591 9.13165C75.5166 9.85771 75.4795 10.4069 75.4795 10.7793C75.4795 11.133 75.4888 11.4681 75.5074 11.7846C75.5445 12.1011 75.5631 12.3338 75.5631 12.4827C75.5631 12.9481 75.4981 13.1809 75.368 13.1809C75.0894 13.1809 74.8851 12.9574 74.755 12.5106C74.495 11.7287 74.2628 11.2726 74.0585 11.1423C73.6684 10.8816 72.7767 10.7513 71.3836 10.7513C70.8263 10.7513 70.3712 10.7513 70.0182 10.7513C69.6839 10.7513 69.461 10.7513 69.3495 10.7513C69.2566 10.7327 69.173 10.7234 69.0987 10.7234C69.043 10.7234 68.9873 10.7234 68.9316 10.7234C68.17 10.7234 67.7892 10.9003 67.7892 11.254C67.7892 11.7939 67.7799 12.4734 67.7613 13.2926C67.7427 14.0931 67.7334 14.754 67.7334 15.2753V16.3923C67.7334 17.7327 67.9563 18.4681 68.4022 18.5984C68.8665 18.7473 69.2659 18.8218 69.6003 18.8218C70.9935 18.8218 72.2102 18.7566 73.2504 18.6263C74.3092 18.496 75.0987 18.3378 75.6188 18.1516C76.1575 17.9468 76.6033 17.7327 76.9563 17.5093C77.3092 17.2673 77.5321 17.0532 77.625 16.867C77.7364 16.6622 77.8386 16.4947 77.9315 16.3644C78.0429 16.234 78.1544 16.1689 78.2659 16.1689C78.4888 16.1689 78.6002 16.3271 78.6002 16.6436C78.6002 17.4441 78.2008 18.254 77.4021 19.0731C76.6033 19.8923 75.9067 20.3019 75.3123 20.3019C73.9749 20.3019 72.4609 20.2553 70.7706 20.1622C69.0987 20.0691 68.0585 20.0226 67.6498 20.0226C67.1297 20.0226 66.4796 20.0691 65.6994 20.1622C64.9192 20.2367 64.3062 20.2739 63.8604 20.2739C63.4703 20.2739 63.2753 20.1809 63.2753 19.9947C63.2753 19.8271 63.2753 19.7154 63.2753 19.6596C63.2753 19.6037 63.3031 19.5572 63.3589 19.5199C63.4146 19.4827 63.4703 19.4641 63.526 19.4641C63.6003 19.4455 63.7211 19.4082 63.8883 19.3524C64.074 19.2965 64.2691 19.2221 64.4734 19.129C64.9192 18.9056 65.2071 18.4681 65.3372 17.8165C65.4858 17.1649 65.5601 15.7965 65.5601 13.7114V10.2487C65.5601 9.74601 65.5694 8.9641 65.5879 7.90293C65.6251 6.84176 65.6437 6.0133 65.6437 5.41755C65.6437 4.9149 65.6251 4.06782 65.5879 2.87633C65.5694 2.33644 65.3372 1.91755 64.8913 1.61968C64.4455 1.32181 63.9254 1.16356 63.331 1.14495C63.0338 1.14495 62.8852 0.977394 62.8852 0.642287Z" fill="current"/>
<path d="M79.7013 3.96543C79.7013 3.22075 79.7941 2.26197 79.9799 1.0891C79.9799 1.05186 79.9799 0.986702 79.9799 0.893617C79.9985 0.800532 80.0078 0.744681 80.0078 0.726064C80.0263 0.688831 80.0356 0.642288 80.0356 0.586437C80.0542 0.511969 80.0728 0.465426 80.0913 0.446809C80.1099 0.409576 80.1285 0.372342 80.1471 0.335107C80.1842 0.279256 80.2214 0.242021 80.2585 0.223405C80.2957 0.204788 80.3421 0.186171 80.3979 0.167554C80.4536 0.148938 80.5186 0.139629 80.5929 0.139629C80.6672 0.121011 80.7508 0.111702 80.8437 0.111702C81.1409 0.111702 81.9211 0.148936 83.1842 0.223405C84.4659 0.297873 86.3049 0.335107 88.7012 0.335107C92.7878 0.335107 95.6485 0.288565 97.2832 0.19548C97.3017 0.19548 97.3296 0.19548 97.3667 0.19548C97.4225 0.176863 97.4596 0.167554 97.4782 0.167554C97.6825 0.167554 97.8218 0.223405 97.8961 0.335107C97.9705 0.446809 98.0076 0.549202 98.0076 0.642287C98.0076 0.772607 98.0355 1.16356 98.0912 1.81516C98.1469 2.46676 98.1748 2.82979 98.1748 2.90426C98.1748 3.36968 98.1469 3.66755 98.0912 3.79787C98.0355 3.90957 97.9147 3.96543 97.729 3.96543C97.5804 3.96543 97.4782 3.85372 97.4225 3.63032C97.2739 3.09043 97.1438 2.72739 97.0324 2.54122C96.9209 2.33644 96.6794 2.15958 96.3079 2.01064C95.9364 1.8617 95.3699 1.78723 94.6082 1.78723H90.986C90.5402 1.78723 90.2615 1.88032 90.1501 2.06649C90.0572 2.23404 90.0108 2.7367 90.0108 3.57447V4.94282C90.0108 7.4375 89.9922 9.63431 89.955 11.5332C89.9365 13.4322 89.9272 14.6423 89.9272 15.1636C89.9272 15.4242 89.9179 15.7593 89.8993 16.1689C89.8993 16.5598 89.8993 16.8298 89.8993 16.9787C89.8993 17.7793 90.0293 18.3098 90.2894 18.5705C90.5309 18.7939 90.8002 18.9707 91.0974 19.1011C91.3947 19.2128 91.6454 19.2779 91.8498 19.2965C92.0727 19.3152 92.2584 19.3617 92.407 19.4362C92.5556 19.5106 92.6299 19.6316 92.6299 19.7992C92.6299 20.004 92.5835 20.1343 92.4906 20.1902C92.3977 20.246 92.2213 20.2739 91.9612 20.2739C91.7383 20.2739 91.246 20.2367 90.4844 20.1622C89.7228 20.0878 89.1841 20.0505 88.8684 20.0505C88.6455 20.0505 88.1903 20.0878 87.503 20.1622C86.8343 20.2181 86.3421 20.246 86.0263 20.246C85.339 20.246 84.9953 20.0971 84.9953 19.7992C84.9953 19.613 85.0511 19.492 85.1625 19.4362C85.274 19.3617 85.4876 19.3059 85.8034 19.2686C86.1377 19.2128 86.3514 19.1755 86.4442 19.1569C87.0758 19.008 87.4287 18.6356 87.503 18.0399C87.6888 16.4016 87.7817 12.883 87.7817 7.48404L87.7538 2.48537C87.7538 2.13165 87.6516 1.91755 87.4473 1.84309C87.243 1.75 86.6393 1.70346 85.6362 1.70346C84.3359 1.70346 83.3514 1.74069 82.6827 1.81516C82.0325 1.88963 81.6517 1.9641 81.5403 2.03856C81.4288 2.09442 81.2988 2.21543 81.1502 2.4016C80.983 2.625 80.8437 2.87633 80.7322 3.15559C80.6393 3.41622 80.5743 3.63963 80.5372 3.8258C80.5186 3.99335 80.4629 4.14229 80.37 4.27261C80.2957 4.38431 80.1749 4.44016 80.0078 4.44016C79.8034 4.44016 79.7013 4.28192 79.7013 3.96543Z" fill="current"/>
<path d="M99.2928 0.642287C99.2928 0.4375 99.5529 0.335107 100.073 0.335107C100.259 0.335107 100.686 0.353724 101.355 0.390959C102.023 0.428193 102.646 0.446809 103.222 0.446809C103.575 0.446809 103.909 0.437501 104.225 0.418884C104.559 0.400267 105.042 0.390959 105.674 0.390959C106.082 0.390959 106.287 0.521278 106.287 0.781916C106.287 1.09841 105.961 1.25665 105.311 1.25665C104.94 1.25665 104.67 1.6383 104.503 2.4016C104.336 3.16489 104.253 3.94681 104.253 4.74734V5.78059C104.253 6.22739 104.243 6.73936 104.225 7.31649C104.206 7.875 104.197 8.21942 104.197 8.34973C104.197 8.81516 104.253 9.11303 104.364 9.24335C104.475 9.37367 104.735 9.43883 105.144 9.43883C105.181 9.43883 105.544 9.43883 106.231 9.43883C106.918 9.42021 108.079 9.4109 109.714 9.4109C109.862 9.4109 110.113 9.42021 110.466 9.43883C110.819 9.43883 111.395 9.44814 112.194 9.46676C113.011 9.46676 113.94 9.46676 114.98 9.46676C115.11 9.46676 115.194 9.30851 115.231 8.99202C115.268 8.61968 115.286 7.48404 115.286 5.58511V4.07713C115.286 3.35106 115.203 2.77394 115.036 2.34575C114.887 1.91755 114.692 1.6383 114.451 1.50798C114.228 1.37766 113.995 1.29388 113.754 1.25665C113.531 1.21942 113.336 1.17287 113.169 1.11702C113.02 1.04255 112.946 0.912234 112.946 0.726064C112.946 0.539894 113.308 0.446809 114.033 0.446809C114.218 0.446809 114.618 0.456118 115.231 0.474735C115.844 0.493351 116.345 0.50266 116.735 0.50266C116.921 0.50266 117.237 0.493351 117.683 0.474735C118.129 0.456118 118.537 0.446809 118.909 0.446809C119.336 0.446809 119.55 0.56782 119.55 0.809842C119.55 1.05186 119.42 1.17287 119.16 1.17287C118.639 1.17287 118.24 1.33112 117.961 1.64761C117.701 1.9641 117.571 2.38298 117.571 2.90426C117.571 3.51862 117.553 4.60771 117.516 6.17154C117.497 7.71676 117.488 8.88963 117.488 9.69016C117.488 10.1184 117.478 10.7979 117.46 11.7287C117.441 12.641 117.432 13.3577 117.432 13.879V14.9122C117.432 15.4707 117.451 15.992 117.488 16.4761C117.525 16.9415 117.543 17.2766 117.543 17.4814C117.543 18.6915 118.324 19.3803 119.884 19.5479C120.107 19.5479 120.218 19.6503 120.218 19.8551C120.218 19.9854 120.125 20.0691 119.94 20.1064C119.754 20.1436 119.392 20.1622 118.853 20.1622C118.649 20.1622 118.305 20.1436 117.822 20.1064C117.358 20.0505 116.986 20.0226 116.708 20.0226C116.373 20.0226 115.964 20.0505 115.482 20.1064C115.017 20.1436 114.553 20.1622 114.088 20.1622C113.865 20.1622 113.708 20.1622 113.615 20.1622C113.522 20.1622 113.42 20.1529 113.308 20.1343C113.215 20.0971 113.15 20.0598 113.113 20.0226C113.095 19.9668 113.085 19.8923 113.085 19.7992C113.085 19.6875 113.178 19.5851 113.364 19.492C113.55 19.3989 113.754 19.3245 113.977 19.2686C114.2 19.2128 114.413 19.1104 114.618 18.9614C114.841 18.7939 114.971 18.5891 115.008 18.3471C115.138 17.6769 115.203 16.9973 115.203 16.3085C115.203 16.1223 115.203 15.8617 115.203 15.5266C115.221 15.1915 115.231 14.9495 115.231 14.8005C115.231 14.4654 115.24 13.9162 115.259 13.1529C115.277 12.3896 115.286 11.7939 115.286 11.3657C115.286 11.0864 115.175 10.891 114.952 10.7793C114.729 10.6676 114.256 10.6117 113.531 10.6117C113.252 10.6117 112.612 10.6303 111.608 10.6676L110.104 10.6955C109.287 10.6955 108.367 10.6862 107.345 10.6676C106.324 10.6303 105.534 10.6117 104.977 10.6117C104.698 10.6117 104.513 10.6676 104.42 10.7793C104.327 10.891 104.28 11.1795 104.28 11.6449C104.28 12.1104 104.262 12.7154 104.225 13.4601C104.188 14.2048 104.169 14.7447 104.169 15.0798V16.2806C104.169 17.0811 104.243 17.6769 104.392 18.0678C104.54 18.4588 104.903 18.8404 105.479 19.2128C105.627 19.3059 106.026 19.3524 106.677 19.3524C106.807 19.3524 106.927 19.3896 107.039 19.4641C107.15 19.5199 107.206 19.5851 107.206 19.6596C107.206 19.9947 106.909 20.1622 106.314 20.1622C105.757 20.1622 105.293 20.1436 104.921 20.1064C104.568 20.0691 104.262 20.0505 104.002 20.0505C103.482 20.0505 102.924 20.0785 102.33 20.1343C101.736 20.1715 101.29 20.1902 100.992 20.1902C100.119 20.1902 99.6829 20.0505 99.6829 19.7713C99.6829 19.6037 99.7665 19.492 99.9337 19.4362C100.119 19.3617 100.324 19.3152 100.547 19.2965C100.77 19.2593 101.002 19.1383 101.243 18.9335C101.485 18.7101 101.652 18.3936 101.745 17.984C101.801 17.6676 101.875 16.7088 101.968 15.1077C102.061 13.5066 102.107 11.9801 102.107 10.5279V8.93617C102.107 8.69415 102.107 8.23803 102.107 7.56782C102.126 6.87899 102.135 6.32979 102.135 5.92021C102.135 4.50532 102.079 3.39761 101.968 2.59708C101.912 2.13165 101.661 1.76862 101.215 1.50798C100.788 1.24734 100.342 1.11702 99.8779 1.11702C99.6922 1.11702 99.5436 1.06117 99.4321 0.949469C99.3392 0.819149 99.2928 0.716755 99.2928 0.642287Z" fill="current"/>
<path d="M122.002 10.6955C122.002 7.56782 122.94 5.00798 124.816 3.01596C126.692 1.00532 129.349 0 132.785 0C134.383 0 135.822 0.232713 137.104 0.698139C138.386 1.16356 139.398 1.74069 140.141 2.42952C140.884 3.09973 141.507 3.87234 142.008 4.74734C142.51 5.62234 142.853 6.43218 143.039 7.17686C143.225 7.90293 143.318 8.58245 143.318 9.21543C143.318 11.7473 142.825 13.8883 141.841 15.6383C140.856 17.3697 139.556 18.6356 137.94 19.4362C136.342 20.2181 134.494 20.609 132.395 20.609C130.185 20.609 128.271 20.125 126.655 19.1569C125.058 18.1888 123.878 16.9694 123.117 15.4987C122.374 14.0279 122.002 12.4269 122.002 10.6955ZM124.454 9.27128C124.454 10.016 124.556 10.8258 124.761 11.7008C124.965 12.5572 125.299 13.4508 125.764 14.3816C126.228 15.2939 126.785 16.1223 127.435 16.867C128.104 17.5931 128.94 18.1981 129.943 18.6822C130.965 19.1476 132.079 19.3803 133.287 19.3803C133.918 19.3803 134.578 19.2872 135.265 19.1011C135.971 18.8963 136.668 18.5891 137.355 18.1795C138.042 17.7699 138.655 17.2766 139.194 16.6995C139.733 16.1037 140.169 15.387 140.503 14.5492C140.856 13.6928 141.033 12.7713 141.033 11.7846C141.033 8.41489 140.15 5.7992 138.386 3.9375C136.621 2.05718 134.438 1.11702 131.838 1.11702C129.795 1.11702 128.048 1.80585 126.6 3.18351C125.169 4.56117 124.454 6.59043 124.454 9.27128Z" fill="current"/>
<path d="M144.68 0.75399C144.68 0.474735 144.847 0.335107 145.181 0.335107C145.293 0.335107 145.544 0.353724 145.934 0.390959C146.342 0.428193 146.584 0.446809 146.658 0.446809C146.937 0.446809 147.318 0.437501 147.801 0.418884C148.284 0.400267 148.599 0.390959 148.748 0.390959C149.101 0.390959 149.324 0.521278 149.417 0.781916C149.64 1.26596 150.039 2.14096 150.615 3.40692C151.191 4.65426 151.646 5.65027 151.98 6.39495C152.333 7.13963 152.779 8.0891 153.318 9.24335C153.856 10.3976 154.293 11.3378 154.627 12.0638C154.962 12.7713 155.305 13.488 155.658 14.2141C156.03 14.9402 156.308 15.4801 156.494 15.8338C156.698 16.1689 156.828 16.3364 156.884 16.3364C156.94 16.3364 156.996 16.3085 157.051 16.2527C157.126 16.1782 157.191 16.0851 157.246 15.9734C157.321 15.8617 157.376 15.75 157.414 15.6383C157.469 15.5266 157.534 15.387 157.609 15.2194C157.701 15.0332 157.766 14.8936 157.804 14.8005L161.398 7.37234C161.807 6.53457 162.169 5.78059 162.485 5.11037C162.8 4.44016 163.051 3.90027 163.237 3.49069C163.423 3.08112 163.581 2.72739 163.711 2.42952C163.841 2.13165 163.934 1.90825 163.989 1.75931C164.064 1.61037 164.11 1.49867 164.129 1.4242C164.166 1.33112 164.194 1.26596 164.212 1.22872C164.231 1.17287 164.249 1.12633 164.268 1.0891C164.287 1.05186 164.314 0.968085 164.352 0.837767C164.407 0.707447 164.454 0.62367 164.491 0.586437C164.547 0.530585 164.639 0.474735 164.77 0.418884C164.918 0.363033 165.104 0.335107 165.327 0.335107C165.68 0.335107 166.005 0.344415 166.302 0.363032C166.618 0.38165 167.091 0.390959 167.723 0.390959C168.039 0.390959 168.197 0.511969 168.197 0.75399C168.197 0.94016 168.132 1.07979 168.002 1.17287C167.89 1.24734 167.649 1.3125 167.277 1.36835C166.813 1.4242 166.488 1.65692 166.302 2.06649C166.116 2.47606 166.023 3.25798 166.023 4.41224C166.023 6.92553 166.079 9.20612 166.191 11.254C166.302 13.2832 166.358 14.5585 166.358 15.0798C166.358 16.9415 166.506 18.133 166.804 18.6543C167.101 19.1569 167.723 19.4082 168.67 19.4082C168.8 19.4082 168.912 19.4548 169.005 19.5479C169.116 19.641 169.172 19.7247 169.172 19.7992C169.172 19.9109 169.163 19.9947 169.144 20.0505C169.126 20.1064 169.088 20.1529 169.033 20.1902C168.977 20.2274 168.921 20.246 168.865 20.246C168.81 20.246 168.708 20.246 168.559 20.246C168.002 20.246 167.454 20.2274 166.915 20.1902C166.376 20.1529 165.977 20.1343 165.717 20.1343C165.197 20.1343 164.658 20.1529 164.101 20.1902C163.544 20.246 163.116 20.2739 162.819 20.2739C162.485 20.2739 162.318 20.1436 162.318 19.883C162.318 19.7154 162.392 19.5944 162.54 19.5199C162.689 19.4455 162.856 19.3989 163.042 19.3803C163.246 19.3617 163.451 19.25 163.655 19.0452C163.878 18.8218 164.036 18.496 164.129 18.0678C164.203 17.6955 164.24 17.0997 164.24 16.2806C164.24 15.6848 164.222 14.9681 164.184 14.1303C164.166 13.2926 164.138 12.4827 164.101 11.7008C164.064 10.9003 164.026 10.1556 163.989 9.46676C163.952 8.75931 163.924 8.18218 163.906 7.73537L163.85 7.06516C163.85 6.26463 163.766 5.86436 163.599 5.86436C163.581 5.86436 163.553 5.87367 163.516 5.89229C163.479 5.9109 163.441 5.93883 163.404 5.97606C163.386 6.0133 163.358 6.05053 163.321 6.08777C163.283 6.125 163.246 6.19016 163.209 6.28325C163.172 6.35771 163.135 6.42287 163.098 6.47872C163.061 6.53458 163.014 6.61835 162.958 6.73005C162.903 6.82314 162.856 6.90692 162.819 6.98138C162.782 7.05585 162.726 7.15825 162.652 7.28856C162.596 7.41888 162.55 7.53059 162.513 7.62367L158.64 15.4707C158.194 16.383 157.72 17.3604 157.218 18.4029C156.884 19.1104 156.68 19.5293 156.605 19.6596C156.531 19.7713 156.438 19.8271 156.327 19.8271C156.16 19.8271 156.02 19.7527 155.909 19.6037C155.797 19.4362 155.63 19.0824 155.407 18.5426C155.184 18.0027 154.989 17.5559 154.822 17.2021C151.423 10.2766 149.677 6.74867 149.584 6.61835C149.528 6.54388 149.472 6.50665 149.417 6.50665C149.268 6.50665 149.194 6.87899 149.194 7.62367C149.175 9.0758 149.129 10.5093 149.054 11.9242C148.98 13.3391 148.943 14.363 148.943 14.996V16.2527C148.943 16.7367 148.952 17.109 148.971 17.3697C149.008 17.6303 149.082 17.9375 149.194 18.2912C149.324 18.6263 149.547 18.887 149.863 19.0731C150.178 19.2593 150.587 19.3803 151.089 19.4362C151.181 19.4362 151.265 19.4734 151.339 19.5479C151.432 19.6037 151.479 19.6689 151.479 19.7434C151.479 19.9481 151.451 20.0878 151.395 20.1622C151.339 20.2181 151.228 20.246 151.061 20.246C150.689 20.246 150.132 20.2274 149.389 20.1902C148.646 20.1529 148.237 20.1343 148.163 20.1343C148.126 20.1343 147.856 20.1436 147.355 20.1622C146.853 20.1995 146.361 20.2181 145.878 20.2181C145.729 20.2181 145.618 20.2088 145.544 20.1902C145.488 20.1715 145.432 20.1343 145.376 20.0785C145.321 20.004 145.293 19.9016 145.293 19.7713C145.293 19.6223 145.376 19.5199 145.544 19.4641C145.711 19.4082 145.897 19.3803 146.101 19.3803C146.324 19.3617 146.565 19.2128 146.825 18.9335C147.085 18.6356 147.281 18.2074 147.411 17.6489C147.503 17.2394 147.615 15.6197 147.745 12.7899C147.875 9.96011 147.94 7.86569 147.94 6.50665C147.94 4.64495 147.754 3.36037 147.383 2.65293C147.03 1.94548 146.25 1.45213 145.042 1.17287C144.801 1.11702 144.68 0.977394 144.68 0.75399Z" fill="current"/>
<path d="M170.285 0.642287C170.285 0.381649 170.545 0.25133 171.065 0.25133C171.139 0.25133 171.26 0.260639 171.427 0.279257C171.595 0.297873 171.725 0.307182 171.817 0.307182C171.873 0.307182 172.746 0.335108 174.437 0.390959C176.127 0.428193 177.52 0.446809 178.616 0.446809C179.006 0.446809 179.963 0.428193 181.486 0.390959C183.028 0.353724 183.929 0.335107 184.189 0.335107C184.542 0.335107 184.718 0.549203 184.718 0.977394C184.718 1.0891 184.663 1.46144 184.551 2.09442C184.44 2.70878 184.384 3.2859 184.384 3.8258C184.384 3.99335 184.337 4.14229 184.245 4.27261C184.152 4.38431 184.05 4.44016 183.938 4.44016C183.659 4.44016 183.52 4.24468 183.52 3.85372C183.52 3.35106 183.362 2.89495 183.046 2.48537C182.731 2.0758 182.341 1.8617 181.876 1.84309C180.204 1.71277 178.923 1.64761 178.031 1.64761H177.307C176.341 1.64761 175.774 1.72207 175.607 1.87101C175.458 2.00133 175.365 2.49468 175.328 3.35106C175.254 4.69149 175.217 6.24601 175.217 8.01463C175.217 8.94548 175.393 9.42021 175.746 9.43883H178.477C179.591 9.43883 180.334 9.4016 180.706 9.32713C181.077 9.25266 181.412 9.11303 181.709 8.90825C182.062 8.66622 182.276 8.32181 182.35 7.875C182.406 7.55851 182.536 7.40027 182.74 7.40027C182.907 7.40027 183.009 7.42819 183.046 7.48404C183.084 7.53989 183.102 7.6609 183.102 7.84707C183.102 7.97739 183.065 8.40559 182.991 9.13165C182.916 9.85771 182.879 10.4069 182.879 10.7793C182.879 11.133 182.889 11.4681 182.907 11.7846C182.944 12.1011 182.963 12.3338 182.963 12.4827C182.963 12.9481 182.898 13.1809 182.768 13.1809C182.489 13.1809 182.285 12.9574 182.155 12.5106C181.895 11.7287 181.663 11.2726 181.458 11.1423C181.068 10.8816 180.177 10.7513 178.783 10.7513C178.226 10.7513 177.771 10.7513 177.418 10.7513C177.084 10.7513 176.861 10.7513 176.749 10.7513C176.656 10.7327 176.573 10.7234 176.499 10.7234C176.443 10.7234 176.387 10.7234 176.331 10.7234C175.57 10.7234 175.189 10.9003 175.189 11.254C175.189 11.7939 175.18 12.4734 175.161 13.2926C175.143 14.0931 175.133 14.754 175.133 15.2753V16.3923C175.133 17.7327 175.356 18.4681 175.802 18.5984C176.266 18.7473 176.666 18.8218 177 18.8218C178.393 18.8218 179.61 18.7566 180.65 18.6263C181.709 18.496 182.498 18.3378 183.019 18.1516C183.557 17.9468 184.003 17.7327 184.356 17.5093C184.709 17.2673 184.932 17.0532 185.025 16.867C185.136 16.6622 185.238 16.4947 185.331 16.3644C185.443 16.234 185.554 16.1689 185.666 16.1689C185.889 16.1689 186 16.3271 186 16.6436C186 17.4441 185.601 18.254 184.802 19.0731C184.003 19.8923 183.307 20.3019 182.712 20.3019C181.375 20.3019 179.861 20.2553 178.17 20.1622C176.499 20.0691 175.458 20.0226 175.05 20.0226C174.53 20.0226 173.879 20.0691 173.099 20.1622C172.319 20.2367 171.706 20.2739 171.26 20.2739C170.87 20.2739 170.675 20.1809 170.675 19.9947C170.675 19.8271 170.675 19.7154 170.675 19.6596C170.675 19.6037 170.703 19.5572 170.759 19.5199C170.814 19.4827 170.87 19.4641 170.926 19.4641C171 19.4455 171.121 19.4082 171.288 19.3524C171.474 19.2965 171.669 19.2221 171.873 19.129C172.319 18.9056 172.607 18.4681 172.737 17.8165C172.886 17.1649 172.96 15.7965 172.96 13.7114V10.2487C172.96 9.74601 172.969 8.9641 172.988 7.90293C173.025 6.84176 173.043 6.0133 173.043 5.41755C173.043 4.9149 173.025 4.06782 172.988 2.87633C172.969 2.33644 172.737 1.91755 172.291 1.61968C171.845 1.32181 171.325 1.16356 170.731 1.14495C170.434 1.14495 170.285 0.977394 170.285 0.642287Z" fill="current"/>
</svg>
